<svg xmlns="http://www.w3.org/2000/svg" width="24" height="24" viewBox="0 0 24 24" fill="none">
  <mask id="mask0_336_122" style="mask-type:alpha" maskUnits="userSpaceOnUse" x="0" y="0" width="24" height="24">
    <rect width="24" height="24" fill="#D9D9D9"/>
  </mask>
  <g mask="url(#mask0_336_122)">
    <path d="M16.0008 8.4L7.10078 17.3C6.91745 17.4833 6.68411 17.575 6.40078 17.575C6.11745 17.575 5.88411 17.4833 5.70078 17.3C5.51745 17.1167 5.42578 16.8833 5.42578 16.6C5.42578 16.3167 5.51745 16.0833 5.70078 15.9L14.6008 7H7.00078C6.71745 7 6.47995 6.90417 6.28828 6.7125C6.09661 6.52083 6.00078 6.28333 6.00078 6C6.00078 5.71667 6.09661 5.47917 6.28828 5.2875C6.47995 5.09583 6.71745 5 7.00078 5H17.0008C17.2841 5 17.5216 5.09583 17.7133 5.2875C17.9049 5.47917 18.0008 5.71667 18.0008 6V16C18.0008 16.2833 17.9049 16.5208 17.7133 16.7125C17.5216 16.9042 17.2841 17 17.0008 17C16.7174 17 16.4799 16.9042 16.2883 16.7125C16.0966 16.5208 16.0008 16.2833 16.0008 16V8.4Z" fill="white"/>
  </g>
</svg>