<svg
          width="23"
          height="18"
          viewBox="0 0 23 18"
          fill="none"
          xmlns="http://www.w3.org/2000/svg"
        >
          <path
            d="M7.152 0.295996L10.248 2.312L6.648 7.784C7.656 7.976 8.496 8.48 9.168 9.296C9.888 10.112 10.248 11.096 10.248 12.248C10.248 13.592 9.768 14.744 8.808 15.704C7.896 16.664 6.744 17.144 5.352 17.144C3.96 17.096 2.784 16.592 1.824 15.632C0.912 14.672 0.456 13.496 0.456 12.104C0.456 11.432 0.576 10.736 0.816 10.016C1.056 9.296 1.44 8.576 1.968 7.856L7.152 0.295996ZM19.824 0.295996L22.92 2.312L19.32 7.784C20.328 7.976 21.168 8.48 21.84 9.296C22.56 10.112 22.92 11.096 22.92 12.248C22.92 13.592 22.44 14.744 21.48 15.704C20.568 16.664 19.416 17.144 18.024 17.144C16.632 17.096 15.456 16.592 14.496 15.632C13.584 14.672 13.128 13.496 13.128 12.104C13.128 11.432 13.248 10.736 13.488 10.016C13.728 9.296 14.112 8.576 14.64 7.856L19.824 0.295996Z"
            fill="white"
          />
        </svg>