<svg width="23" height="18" viewBox="0 0 23 18" fill="none" xmlns="http://www.w3.org/2000/svg">
<path d="M16.224 17.144L13.128 15.128L16.728 9.656C15.72 9.464 14.856 8.96 14.136 8.144C13.464 7.328 13.128 6.344 13.128 5.192C13.128 3.8 13.608 2.648 14.568 1.736C15.528 0.775997 16.68 0.295996 18.024 0.295996C19.416 0.295996 20.568 0.775997 21.48 1.736C22.44 2.648 22.92 3.8 22.92 5.192C22.92 6.536 22.416 8 21.408 9.584L16.224 17.144ZM3.552 17.144L0.456 15.128L4.056 9.656C3.048 9.464 2.184 8.96 1.464 8.144C0.792 7.328 0.456 6.344 0.456 5.192C0.456 3.8 0.936 2.648 1.896 1.736C2.856 0.775997 4.008 0.295996 5.352 0.295996C6.744 0.295996 7.896 0.775997 8.808 1.736C9.768 2.648 10.248 3.8 10.248 5.192C10.248 6.536 9.744 8 8.736 9.584L3.552 17.144Z" fill="white"/>
</svg>
