<?xml version="1.0" standalone="no"?>
<!DOCTYPE svg PUBLIC "-//W3C//DTD SVG 20010904//EN"
 "http://www.w3.org/TR/2001/REC-SVG-20010904/DTD/svg10.dtd">
<svg version="1.0" xmlns="http://www.w3.org/2000/svg"
 width="1024.000000pt" height="1024.000000pt" viewBox="0 0 1024.000000 1024.000000"
 preserveAspectRatio="xMidYMid meet">

<g transform="translate(0.000000,1024.000000) scale(0.100000,-0.100000)"
fill="#000000" stroke="none">
<path d="M4960 8903 c-1264 -43 -2473 -774 -3110 -1878 -226 -392 -379 -819
-454 -1265 -35 -211 -46 -362 -46 -634 0 -390 47 -705 161 -1083 64 -213 122
-360 224 -568 293 -599 713 -1093 1250 -1472 514 -362 1170 -593 1835 -644
190 -14 580 -6 770 16 1048 125 1976 682 2611 1567 356 497 588 1099 676 1753
22 165 25 669 5 850 -73 659 -323 1302 -715 1835 -375 511 -932 949 -1550
1221 -481 212 -1086 322 -1657 302z m-670 -1413 c231 -37 431 -170 543 -360
49 -84 92 -221 106 -335 14 -117 15 -1358 1 -1475 -23 -188 -80 -312 -199
-431 -54 -53 -99 -87 -156 -116 -170 -87 -276 -103 -697 -103 l-318 0 0 -835
0 -835 -384 0 -385 0 -1 2250 0 2250 712 0 c438 0 738 -4 778 -10z m2660 -14
c219 -61 375 -191 471 -391 77 -160 89 -255 89 -687 l0 -328 -373 0 -373 0 -1
303 c-1 283 -2 306 -21 343 -25 49 -57 79 -104 99 -29 12 -78 15 -225 15 -161
0 -194 -3 -228 -19 -50 -22 -91 -69 -105 -119 -6 -25 -10 -511 -10 -1458 l0
-1422 28 -53 c22 -43 38 -59 81 -81 52 -28 56 -28 231 -28 106 0 191 5 211 11
51 18 97 55 122 102 22 42 22 44 22 527 l0 485 -162 3 -163 2 0 310 0 310 536
0 535 0 -3 -857 -4 -858 -23 -85 c-49 -178 -143 -331 -261 -424 -76 -60 -197
-120 -297 -149 -75 -21 -93 -22 -538 -22 -455 0 -461 0 -535 23 -134 43 -207
86 -300 181 -70 70 -94 103 -133 181 -25 52 -57 133 -69 180 l-22 85 -4 1525
c-3 1591 -2 1644 39 1785 71 241 261 433 494 500 104 31 151 33 595 31 384 -2
443 -4 500 -20z"/>
<path d="M3570 6075 l0 -755 248 0 c268 0 298 6 349 61 54 59 53 51 53 697 l0
598 -22 44 c-14 26 -41 57 -66 75 l-44 30 -259 3 -259 3 0 -756z"/>
</g>
</svg>
